<?xml version="1.0" standalone="no"?>
<!DOCTYPE svg PUBLIC "-//W3C//DTD SVG 20010904//EN"
 "http://www.w3.org/TR/2001/REC-SVG-20010904/DTD/svg10.dtd">
<svg version="1.0" xmlns="http://www.w3.org/2000/svg"
 width="264.000000pt" height="264.000000pt" viewBox="0 0 264.000000 264.000000"
 preserveAspectRatio="xMidYMid meet">
<metadata>
Created by potrace 1.11, written by Peter Selinger 2001-2013
</metadata>
<g transform="translate(0.000000,264.000000) scale(0.100000,-0.100000)"
fill="#000000" stroke="none">
<path d="M2 2581 c2 -38 6 -57 13 -53 5 3 4 -2 -4 -11 -7 -9 -9 -17 -3 -17 5
0 9 -8 8 -17 -1 -12 6 -17 19 -16 l20 2 -20 -16 c-13 -10 -15 -13 -5 -11 9 2
15 -1 15 -7 0 -5 -4 -9 -8 -7 -5 1 -5 -2 -2 -8 5 -8 12 -7 23 3 24 20 47 11
30 -11 -11 -15 -11 -15 4 -4 13 10 17 10 20 0 3 -8 7 -6 11 6 4 10 3 15 -3 11
-11 -7 -34 44 -25 53 3 3 5 0 5 -6 0 -6 9 -9 19 -7 15 3 19 -1 16 -16 -4 -17
6 -24 28 -20 5 1 6 -3 2 -8 -3 -6 -12 -8 -20 -4 -8 3 -15 0 -15 -5 0 -6 12 -9
26 -6 19 3 24 1 18 -8 -4 -7 1 -5 11 4 15 14 16 20 5 32 -22 27 -5 17 19 -11
18 -19 19 -24 7 -20 -11 4 -15 3 -11 -4 4 -5 15 -7 26 -4 11 4 19 2 19 -6 0
-8 4 -8 15 1 13 11 14 10 9 -4 -5 -12 -2 -15 10 -10 9 4 16 3 15 -2 -4 -26 1
-36 15 -25 11 9 13 6 9 -16 -3 -24 -2 -25 6 -8 7 16 9 11 8 -23 -1 -34 -4 -41
-17 -37 -12 5 -13 4 -2 -7 11 -11 16 -10 28 6 12 17 14 17 14 4 0 -9 4 -19 9
-22 5 -4 7 4 3 16 -3 13 -1 19 5 15 6 -4 21 6 34 21 l24 27 -27 -24 c-34 -29
-38 -14 -5 17 19 18 26 19 37 9 12 -10 12 -9 0 6 -10 13 -10 21 -2 29 7 7 8
17 2 28 -7 14 -7 48 0 58 2 1 4 7 5 12 1 6 4 13 5 18 1 4 2 10 2 13 -1 3 12 6
27 7 26 1 28 -2 24 -36 -2 -26 0 -33 6 -23 5 8 8 27 6 42 -2 20 0 26 10 23 8
-3 11 -12 8 -20 -3 -8 1 -14 10 -14 9 0 21 -8 26 -17 6 -10 11 -13 11 -8 0 6
-5 16 -11 22 -8 8 -6 14 9 22 15 8 22 8 25 -2 2 -6 2 -1 0 12 -3 19 -1 22 14
17 17 -6 17 -5 0 8 -23 18 -22 25 3 19 18 -5 25 -15 21 -36 -1 -5 3 -6 9 -2 7
4 7 12 0 24 -5 10 -6 21 -2 25 3 4 -2 4 -13 1 -14 -5 -16 -4 -7 2 10 8 11 15
1 36 -7 15 -17 24 -23 20 -6 -3 -7 -2 -3 2 14 16 36 14 30 -3 -3 -13 -1 -13
11 2 12 15 16 16 16 5 0 -12 2 -12 11 1 8 12 9 11 7 -5 -2 -14 2 -19 13 -17 9
1 19 -4 23 -13 3 -8 1 -15 -3 -15 -5 0 -12 6 -14 13 -4 9 -6 9 -6 0 -1 -15 16
-26 28 -19 5 4 5 20 -2 41 l-10 34 -354 1 -353 0 2 -59z m560 10 c7 10 7 8 3
-9 -4 -15 -2 -22 5 -20 7 2 14 -3 16 -10 1 -7 0 -8 -3 -2 -2 5 -9 8 -14 4 -5
-3 -12 2 -15 11 -6 13 -8 14 -15 3 -7 -10 -9 -10 -9 1 0 11 -4 9 -14 -4 -17
-24 -10 -41 10 -24 11 9 15 8 20 -6 5 -13 9 -14 15 -3 5 8 7 3 5 -15 -3 -34
-16 -48 -16 -18 0 12 -4 19 -10 16 -5 -3 -10 -1 -10 5 0 6 -4 8 -10 5 -19 -11
-50 -14 -50 -4 0 6 -4 7 -10 4 -5 -3 -10 -2 -10 3 0 6 7 13 16 16 13 5 14 9 3
22 -10 12 -10 15 2 12 8 -2 13 2 12 8 -1 6 4 11 12 11 8 0 12 -4 9 -8 -2 -4 5
-7 16 -6 11 1 21 8 21 17 1 10 3 9 6 -4 4 -15 7 -16 15 -5z m25 -83 c-3 -8 -6
-5 -6 6 -1 11 2 17 5 13 3 -3 4 -12 1 -19z m-508 -51 c8 -10 7 -14 -2 -14 -8
0 -14 6 -14 14 0 7 1 13 2 13 2 0 8 -6 14 -13z m348 -82 c0 -8 -4 -15 -9 -15
-10 0 -11 14 -1 23 9 10 10 9 10 -8z m-29 -38 c6 10 13 16 15 13 3 -3 -8 -20
-24 -38 -16 -18 -29 -27 -29 -20 0 9 -3 8 -10 -2 -5 -8 -10 -10 -10 -5 0 6 5
17 10 25 7 11 10 11 10 2 0 -7 5 -10 11 -7 7 5 2 17 -13 34 l-23 26 27 -23
c25 -22 27 -23 36 -5z"/>
<path d="M489 2576 c-1 -3 -2 -9 -3 -13 -1 -5 -5 -14 -10 -22 -6 -9 -5 -12 2
-7 5 3 12 3 15 -1 2 -5 3 -3 1 3 -1 6 2 16 8 22 6 6 6 12 -1 16 -6 4 -12 5
-12 2z"/>
<path d="M727 2613 c4 -16 7 -36 7 -46 0 -16 2 -17 12 -3 13 19 29 22 18 4 -5
-9 -2 -9 9 1 20 16 23 2 5 -19 -10 -11 -9 -11 6 0 18 14 19 13 13 -5 -6 -17
-4 -16 12 4 13 18 20 20 23 10 3 -10 9 -6 18 11 7 14 9 22 5 18 -5 -4 -15 -2
-23 5 -10 7 -13 8 -9 1 4 -7 0 -17 -8 -24 -17 -14 -19 -7 -5 20 12 23 2 59
-11 38 -7 -10 -9 -10 -9 1 0 11 -4 9 -14 -5 -14 -18 -15 -18 -21 -1 -4 9 -13
17 -21 17 -11 0 -13 -7 -7 -27z m76 -21 c-6 -13 -8 -13 -14 4 -5 13 -8 15 -8
4 -1 -18 -38 -22 -38 -4 0 7 6 10 13 7 6 -2 15 0 18 6 10 16 36 1 29 -17z"/>
<path d="M820 2632 c0 -5 7 -17 16 -28 8 -10 12 -12 8 -4 -5 11 -1 10 13 -3
l21 -19 -20 -23 c-12 -14 -25 -22 -29 -19 -4 2 -10 0 -13 -5 -7 -11 13 -9 32
3 9 5 19 1 28 -10 10 -14 13 -15 9 -3 -5 13 1 16 27 15 28 -1 33 3 34 22 2 20
1 20 -3 2 -6 -27 -27 -20 -31 9 -3 17 1 21 15 19 11 -2 17 2 15 10 -1 8 2 11
8 7 5 -3 10 -15 10 -26 0 -11 4 -18 9 -14 5 3 13 1 16 -5 4 -6 1 -9 -7 -8 -7
2 -12 -3 -10 -11 2 -8 1 -20 -2 -28 -5 -11 -9 -11 -26 -1 -16 10 -22 10 -32 0
-11 -11 -10 -12 6 -6 11 4 22 2 27 -7 8 -11 15 -8 35 16 l26 30 -21 -43 c-12
-23 -18 -42 -14 -41 21 3 24 -3 12 -18 -13 -16 -12 -17 4 -4 13 11 15 17 6 28
-9 10 -9 16 -1 24 7 5 10 6 7 3 -2 -4 0 -15 6 -25 6 -13 6 -25 -3 -39 -11 -17
-10 -22 12 -37 25 -18 31 -19 29 -5 -1 4 -5 6 -11 4 -5 -1 -7 2 -3 8 4 6 1 9
-6 8 -6 -2 -14 3 -17 11 -3 9 0 11 8 6 8 -5 11 -4 7 2 -4 6 0 19 9 29 15 18
15 18 5 -2 -6 -12 -6 -26 0 -35 5 -7 9 -10 9 -4 0 17 24 -15 27 -37 2 -16 0
-19 -6 -9 -7 11 -10 11 -17 0 -4 -7 -3 -14 4 -17 7 -2 12 -9 12 -15 0 -6 -17
5 -37 24 -21 18 -30 25 -20 13 9 -11 14 -24 10 -29 -5 -4 -2 -4 6 0 11 6 13 4
8 -8 -3 -9 -2 -19 4 -22 5 -4 7 -10 5 -14 -3 -4 9 -5 26 -3 21 3 29 1 24 -7
-5 -7 -1 -9 8 -5 9 3 13 10 10 15 -3 5 -3 9 1 9 3 0 10 -11 15 -25 10 -26 29
-34 31 -12 0 6 4 3 9 -8 l9 -20 0 20 c1 15 3 17 10 7 4 -8 10 -13 12 -11 7 4
49 -26 49 -35 0 -5 -11 1 -25 14 -14 13 -25 19 -25 14 1 -18 46 -41 78 -39 36
2 43 15 15 27 -13 6 -11 7 7 3 73 -17 97 -10 77 23 -5 7 -3 12 5 13 7 0 27 2
43 4 20 3 35 -1 44 -13 13 -16 13 -16 7 2 -5 14 -2 17 9 12 10 -3 13 -2 10 5
-4 6 2 8 18 4 20 -5 28 -2 37 17 10 21 10 21 -3 5 -9 -10 -18 -14 -21 -9 -7
12 17 23 59 28 22 3 26 1 15 -6 -8 -5 -10 -10 -4 -10 6 0 14 3 18 7 3 4 14 8
24 9 9 1 28 5 42 8 22 5 68 7 113 6 9 -1 15 -5 12 -10 -5 -8 24 -18 80 -27 17
-3 36 -10 44 -16 11 -9 13 -9 8 0 -4 6 -3 15 3 18 6 4 10 3 9 -2 -4 -22 3 -33
19 -34 11 0 13 -2 4 -6 -21 -8 27 -53 57 -53 14 0 38 -8 53 -18 37 -25 78 -74
71 -85 -3 -6 0 -15 8 -21 8 -6 21 -20 29 -31 l15 -20 -25 20 c-42 35 -69 70
-58 76 7 4 6 9 -1 13 -6 4 -11 2 -11 -4 0 -6 -5 -8 -11 -4 -8 5 -8 9 1 14 8 5
3 14 -16 29 -14 11 -31 21 -37 21 -5 0 2 -9 17 -21 14 -11 24 -24 21 -29 -3
-5 -1 -11 4 -15 17 -10 71 -95 71 -111 0 -7 4 -14 8 -14 4 0 8 -8 8 -17 1 -10
2 -22 4 -28 1 -5 1 -28 0 -50 l-2 -40 -10 49 c-5 27 -19 63 -31 80 -12 17 -20
32 -19 34 2 2 1 6 -2 10 -3 3 -6 -1 -6 -9 0 -8 -9 5 -21 28 -21 44 -59 85 -46
51 3 -10 1 -20 -5 -24 -7 -4 -8 -3 -4 4 4 7 1 12 -8 12 -10 0 -13 6 -9 17 4
10 2 14 -4 10 -6 -4 -14 0 -17 9 -4 9 -9 14 -13 10 -4 -3 -19 6 -34 20 -18 17
-46 30 -76 35 -66 11 -105 11 -99 0 4 -5 -6 -8 -21 -5 -121 16 -175 16 -221
-1 -26 -10 -51 -24 -55 -32 -5 -7 -13 -10 -19 -7 -6 4 -9 1 -6 -7 3 -8 12 -13
21 -11 8 1 18 -1 21 -6 3 -5 29 -5 58 -1 82 11 183 5 203 -11 10 -8 21 -14 24
-13 9 4 73 -18 68 -23 -2 -3 -31 3 -63 12 -75 20 -104 24 -184 23 -106 -1
-128 -4 -147 -21 -10 -9 -22 -17 -28 -17 -5 -1 -10 -4 -10 -8 0 -5 -4 -14 -8
-21 -6 -8 -4 -12 5 -10 7 2 12 -2 11 -8 -1 -6 5 -11 13 -11 8 0 14 5 14 11 0
6 8 -1 18 -17 10 -15 22 -25 25 -22 4 3 5 2 3 -1 -3 -3 -1 -17 4 -30 9 -24 -4
-45 -14 -22 -2 7 -3 2 -2 -12 2 -14 6 -23 9 -20 7 6 36 -30 37 -44 0 -5 -10
-1 -22 10 -23 18 -22 18 0 -7 15 -17 19 -29 12 -32 -6 -3 -5 -4 2 -3 7 2 13 9
13 16 0 7 7 14 17 16 13 1 16 -5 13 -32 -2 -19 1 -32 7 -31 6 1 13 -5 15 -13
3 -9 1 -11 -4 -5 -11 14 -33 17 -33 5 0 -6 4 -10 9 -10 5 0 8 -13 7 -29 0 -16
-5 -27 -9 -24 -5 3 -6 -9 -4 -25 3 -17 0 -38 -7 -47 -10 -14 -12 -9 -11 27 0
25 6 48 15 56 13 11 11 11 -9 2 -19 -10 -22 -9 -19 2 3 7 10 13 16 13 5 0 14
4 19 9 4 5 3 7 -3 3 -6 -4 -10 6 -10 24 0 16 3 29 8 29 4 0 8 8 8 17 0 24 -19
3 -26 -28 -3 -13 -6 -28 -8 -34 -1 -5 -8 -20 -14 -33 -10 -16 -10 -22 -1 -20
6 2 14 -3 17 -11 3 -9 0 -11 -8 -6 -10 6 -11 4 -4 -6 13 -21 14 -41 4 -58 -5
-9 -10 -11 -10 -4 0 6 -13 0 -28 -15 -15 -15 -26 -31 -23 -36 2 -5 -2 -5 -10
0 -23 14 -38 13 -32 -3 5 -12 7 -12 15 -1 8 11 9 10 6 -1 -2 -8 -12 -15 -21
-17 -11 -1 -14 2 -10 9 4 8 1 7 -9 -1 -11 -9 -23 -10 -41 -3 -14 5 -28 7 -33
3 -4 -4 -4 -1 0 6 4 6 2 12 -3 12 -6 0 -11 8 -11 18 0 14 -2 15 -10 2 -9 -13
-14 -7 -11 12 0 5 -2 7 -7 7 -4 -1 -9 0 -12 1 -8 3 -32 8 -65 15 -26 5 -24 2
18 -24 41 -27 46 -34 37 -50 -7 -14 -6 -21 3 -24 6 -2 -12 -5 -42 -6 -29 -1
-58 -4 -62 -7 -5 -3 -9 0 -9 6 0 6 -5 8 -10 5 -15 -9 -2 -25 21 -25 10 0 19
-4 19 -9 0 -5 8 -8 18 -6 9 1 22 0 27 -4 17 -9 35 -10 29 0 -3 5 6 8 20 7 23
-2 24 -3 10 -30 -8 -15 -26 -31 -40 -34 -37 -9 -103 4 -142 28 -34 21 -65 74
-55 92 4 5 1 6 -5 2 -13 -8 7 -66 31 -90 26 -26 81 -48 132 -53 50 -5 53 -4
73 29 33 53 70 84 84 70 9 -9 7 -16 -7 -32 -10 -11 -15 -23 -12 -27 4 -3 -1
-15 -10 -26 -13 -15 -14 -19 -3 -13 8 4 6 0 -4 -8 -11 -9 -16 -16 -12 -16 5 0
3 -7 -4 -15 -7 -9 -14 -30 -15 -48 -1 -18 -7 -42 -13 -54 -8 -15 -9 -24 -2
-28 8 -5 7 -11 -1 -21 -10 -13 -6 -18 14 -15 17 3 5 -27 -20 -50 -15 -13 -23
-17 -17 -9 21 29 23 49 6 61 -9 8 -14 9 -10 5 5 -5 -1 -16 -12 -23 -11 -8 -20
-20 -19 -26 1 -7 1 -19 0 -27 -1 -12 -4 -12 -12 3 -8 13 -15 15 -28 7 -10 -5
-21 -6 -25 -3 -3 3 -6 1 -6 -6 0 -7 -6 -9 -12 -6 -7 4 1 -6 17 -22 17 -15 26
-25 20 -22 -5 3 -23 2 -40 -2 -22 -5 -24 -7 -9 -8 12 0 25 -8 28 -17 3 -8 2
-13 -3 -10 -19 12 -20 -25 -1 -41 10 -9 16 -21 13 -26 -3 -6 -2 -8 3 -5 5 3
18 -6 28 -20 11 -14 14 -22 8 -18 -7 4 -12 5 -12 3 0 -3 18 -14 40 -25 26 -13
41 -15 44 -8 2 6 3 1 3 -12 -1 -26 -1 -26 -20 -7 -13 13 -16 13 -21 -1 -3 -8
-2 -12 4 -9 5 3 14 -3 20 -14 7 -13 7 -22 0 -26 -9 -6 -14 1 -11 17 3 21 -18
5 -23 -17 -4 -14 -11 -23 -15 -20 -5 3 -8 -1 -7 -7 2 -17 25 -56 26 -44 0 5 7
3 15 -4 14 -11 35 -15 123 -19 6 -1 12 -9 12 -18 0 -15 -2 -16 -10 -3 -6 9
-10 10 -10 3 0 -6 5 -15 10 -18 6 -4 8 -11 5 -16 -4 -5 -1 -9 5 -9 6 0 8 -5 3
-12 -4 -7 -6 -24 -5 -38 2 -21 1 -22 -8 -10 -10 12 -11 11 -7 -7 3 -13 1 -23
-5 -23 -5 0 -6 -5 -3 -10 4 -6 11 -7 17 -4 6 4 8 2 4 -4 -5 -8 -45 -10 -75 -3
-2 1 1 7 6 14 8 10 9 68 4 151 -1 5 -9 1 -20 -10 -16 -17 -16 -20 -2 -26 13
-5 12 -7 -4 -8 -11 -2 -24 -2 -28 -1 -5 1 -5 -4 -1 -11 4 -7 7 -26 6 -42 -2
-17 0 -27 3 -24 4 3 7 20 7 37 1 17 4 31 8 31 9 0 6 -62 -4 -78 -4 -7 -5 -16
-2 -19 3 -4 6 -1 6 6 0 7 5 9 10 6 8 -5 7 -12 -2 -23 -9 -11 -9 -13 -1 -9 7 5
16 -1 22 -12 14 -25 14 -34 1 -26 -15 9 -12 -1 4 -14 12 -10 14 -8 11 17 -2
19 1 29 10 29 10 0 11 -6 5 -23 -5 -12 -7 -24 -4 -27 2 -2 -3 -10 -13 -18 -15
-12 -16 -12 -8 1 8 13 7 13 -8 1 -25 -20 -21 -28 14 -23 24 3 30 1 24 -8 -6
-9 -3 -10 11 -2 12 6 37 7 63 2 52 -9 71 -4 71 19 0 13 2 13 9 2 7 -10 9 -7 8
12 -2 20 -5 23 -16 14 -12 -10 -12 -9 -3 10 7 12 9 30 6 40 -6 16 -5 16 10 -2
16 -19 16 -19 6 7 -7 21 -6 27 3 25 7 -1 11 5 9 13 -3 11 2 10 17 -4 12 -11
21 -27 21 -37 0 -10 5 -21 10 -24 6 -4 8 -15 5 -26 -10 -32 3 -40 40 -25 19 8
34 12 34 8 -3 -21 4 -23 29 -6 26 17 26 17 12 0 -13 -16 -12 -18 15 -16 44 3
52 1 35 -10 -8 -5 -11 -12 -7 -16 3 -4 13 -1 22 6 12 10 15 10 15 -4 0 -9 -4
-16 -10 -16 -5 0 -10 -5 -10 -11 0 -5 5 -7 12 -3 7 4 8 3 4 -5 -4 -6 -11 -9
-16 -6 -5 3 -8 -8 -8 -23 1 -17 9 -34 20 -41 10 -6 18 -8 17 -4 -5 29 3 43 25
43 13 0 26 7 30 15 6 17 -9 21 -19 5 -10 -17 -24 -11 -22 9 1 14 7 18 25 15
14 -3 32 2 43 12 11 10 22 14 26 11 3 -4 13 -1 22 6 14 10 14 10 3 -4 -10 -13
-9 -19 3 -29 9 -7 19 -10 22 -6 4 4 1 11 -7 16 -13 8 -12 10 3 10 10 0 17 8
17 20 0 11 5 20 10 20 6 0 10 7 10 15 0 8 4 15 9 15 6 0 8 8 7 17 -3 15 37 67
46 62 2 -1 14 1 27 6 14 4 27 2 35 -5 8 -10 8 -11 -1 -6 -6 3 -14 2 -18 -4 -4
-6 -9 -8 -13 -6 -4 2 -16 -2 -27 -11 -16 -12 -17 -14 -3 -11 19 4 21 -3 8 -34
-6 -17 -9 -18 -9 -6 -1 22 -20 33 -34 19 -8 -8 -7 -11 5 -11 11 0 16 -7 13
-20 -2 -11 1 -20 6 -20 13 0 1 -42 -15 -52 -8 -5 -8 -10 0 -18 9 -9 14 -9 19
0 5 8 11 6 19 -6 13 -17 42 -11 31 6 -3 5 -1 11 5 15 18 11 11 27 -10 22 -11
-3 -20 -1 -20 4 0 5 11 11 25 15 23 6 29 19 28 61 -1 7 3 11 7 8 4 -3 10 2 14
10 3 8 0 15 -7 15 -18 1 24 23 48 25 14 2 21 -3 21 -14 0 -13 -7 -16 -24 -13
-18 4 -23 1 -20 -9 3 -8 10 -14 16 -14 5 0 13 -3 17 -6 3 -4 -5 -6 -17 -5 -17
1 -22 -4 -20 -17 2 -9 -2 -16 -8 -15 -7 2 -13 -12 -15 -30 -2 -26 0 -32 13
-27 11 4 12 2 5 -7 -5 -7 -8 -24 -7 -38 1 -14 -1 -29 -5 -35 -3 -5 -6 -23 -7
-40 -3 -100 -4 -110 -14 -95 -8 12 -10 10 -11 -10 l-1 -25 -7 26 c-5 14 -13
35 -19 46 -9 15 -8 33 2 71 l13 50 -34 -4 c-22 -3 -32 -1 -28 6 3 5 2 10 -4
10 -5 0 -13 -4 -16 -10 -3 -5 -2 -10 3 -10 5 0 14 -12 20 -26 7 -14 8 -23 2
-19 -5 3 -10 1 -10 -4 0 -6 6 -11 13 -11 6 0 0 -8 -14 -18 -21 -14 -25 -22
-18 -45 5 -18 4 -25 -4 -20 -6 4 -8 0 -4 -10 3 -9 0 -23 -8 -31 -11 -11 -12
-16 -2 -19 6 -3 -1 -6 -16 -6 -16 -1 -26 -5 -22 -11 3 -5 12 -7 20 -3 8 3 15
0 15 -7 0 -6 6 -8 13 -4 6 4 9 4 5 0 -4 -5 -3 -19 3 -33 6 -16 6 -22 -1 -18
-6 3 -10 1 -10 -4 0 -6 -5 -11 -11 -11 -8 0 -8 5 1 15 7 8 9 22 6 31 -11 28
-20 7 -31 -74 -5 -37 9 -36 26 2 8 18 9 17 4 -7 -4 -17 -2 -26 4 -23 10 7 9
-19 -2 -30 -4 -4 -7 -11 -7 -16 0 -10 140 -11 141 0 1 4 3 36 4 72 17 317 21
345 54 347 14 1 17 -4 13 -25 -5 -24 -6 -25 -13 -7 -6 17 -7 16 -6 -7 1 -15 5
-24 9 -22 5 3 11 -2 14 -10 3 -9 10 -13 15 -10 5 3 6 -2 3 -11 -6 -14 -8 -14
-20 2 -12 17 -13 16 -7 -5 3 -12 9 -22 15 -22 5 0 3 -6 -4 -14 -17 -18 -30 -9
-23 15 4 10 2 19 -3 19 -4 0 -8 -19 -9 -42 0 -24 -3 -52 -7 -63 -6 -16 -5 -16
6 2 13 21 13 20 14 -20 0 -23 -1 -34 -4 -25 -2 10 -7 18 -12 18 -9 0 -7 -26 3
-36 3 -4 0 -22 -8 -40 -8 -19 -14 -37 -15 -39 0 -3 0 -6 -1 -7 0 -2 -2 -20 -3
-40 l-2 -37 263 -1 263 -1 0 239 c0 188 -3 242 -13 251 -8 6 -17 8 -20 5 -3
-3 -11 -2 -19 2 -7 4 -26 9 -43 10 -16 1 -31 2 -32 4 -2 1 -7 4 -13 5 -5 1
-13 4 -17 5 -5 1 -11 2 -15 1 -5 0 -8 3 -8 9 0 5 -7 6 -17 3 -9 -4 -14 -2 -11
3 4 5 -13 9 -37 9 -33 0 -41 -3 -38 -15 4 -12 3 -12 -5 -2 -13 19 -16 19 -37
2 -11 -8 -16 -10 -12 -3 4 6 3 14 -2 17 -7 5 -19 -16 -25 -46 -3 -14 -14 -19
-12 -4 1 8 5 19 9 22 4 4 7 14 7 23 0 12 -6 9 -21 -9 -11 -14 -17 -18 -13 -10
4 8 14 23 22 33 17 19 3 24 -16 5 -7 -7 -12 -8 -12 -3 0 5 -7 0 -15 -11 -15
-19 -15 -19 -8 1 6 18 5 18 -10 6 -9 -7 -14 -17 -11 -22 3 -5 -3 -6 -12 -2
-11 4 -13 8 -6 11 7 2 9 9 6 14 -5 7 -2 8 6 3 10 -6 12 -4 7 8 -4 11 -2 14 9
10 8 -3 14 -1 12 3 -6 18 35 94 51 94 12 0 13 2 2 13 -10 10 -16 8 -29 -8 -15
-18 -23 -19 -82 -12 -36 5 -78 10 -95 11 -16 2 -32 4 -35 6 -3 1 -9 2 -13 1
-5 -1 -5 4 -1 10 5 9 1 10 -14 7 -14 -4 -20 -2 -15 5 4 7 0 8 -11 4 -9 -4 -15
-3 -12 2 3 5 -3 11 -14 14 -11 3 -20 1 -20 -5 0 -5 -5 -6 -11 -2 -17 10 9 23
35 17 16 -4 18 -2 7 5 -8 6 -10 15 -6 23 5 8 5 11 0 7 -4 -4 -15 -2 -23 5 -13
10 -14 9 -7 -3 4 -8 -4 -4 -19 10 -15 14 -29 23 -31 20 -2 -3 -7 -1 -12 4 -5
5 -2 6 7 1 8 -4 4 3 -10 16 -14 13 -36 40 -48 59 -15 24 -22 29 -22 17 0 -10
-5 -15 -11 -12 -16 10 -8 126 10 155 8 14 27 36 41 49 14 13 18 20 10 16 -11
-6 -12 -5 -4 4 6 6 20 13 31 15 11 2 37 13 58 25 21 11 42 18 46 15 5 -3 6 1
3 9 -3 9 4 22 18 31 12 9 19 16 14 16 -5 0 -3 7 4 15 7 8 18 15 24 15 6 0 3
-7 -6 -14 -20 -15 -14 -28 9 -19 12 5 11 1 -3 -15 -22 -26 -28 -28 -20 -6 4 9
2 13 -5 8 -6 -3 -9 -21 -7 -40 3 -26 0 -34 -15 -38 -14 -3 -18 -10 -13 -23 6
-14 5 -16 -5 -5 -19 18 -34 15 -18 -5 12 -15 12 -16 -2 -11 -14 6 -16 0 -13
-35 2 -24 0 -36 -4 -29 -7 9 -13 7 -28 -9 -19 -22 -83 -54 -91 -46 -2 3 16 15
41 26 33 17 43 27 40 39 -5 15 -4 15 5 2 6 -8 11 -12 12 -7 5 26 4 33 -4 45
-11 14 -63 16 -72 3 -3 -5 0 -13 6 -17 7 -4 9 -3 5 4 -3 6 1 9 11 8 9 -2 18
-8 19 -15 1 -6 0 -7 -2 -2 -8 15 -51 -16 -59 -42 -8 -23 -9 -34 -6 -69 l2 -23
9 22 c9 22 24 24 48 9 16 -10 65 32 55 47 -3 6 -1 7 5 3 22 -13 -15 -59 -71
-88 l-27 -14 27 -25 c44 -40 131 -89 159 -89 22 0 24 3 18 23 -3 12 -12 28
-18 36 -6 8 -10 23 -8 34 3 14 0 17 -10 11 -10 -6 -10 -4 1 9 9 12 10 17 2 17
-7 0 -9 5 -6 10 4 6 11 8 16 5 5 -3 6 1 3 9 -3 9 -10 16 -16 16 -5 0 -7 -4 -4
-8 3 -5 -1 -9 -9 -9 -13 0 -13 2 -1 16 8 9 14 21 14 26 0 6 17 14 37 19 35 8
36 9 18 29 l-18 20 33 -19 c19 -10 37 -26 42 -34 8 -16 42 -138 43 -157 0 -6
8 -10 18 -8 9 2 32 -4 51 -14 18 -10 56 -26 83 -36 54 -20 95 -51 95 -72 0 -7
5 -13 10 -13 6 0 10 -9 10 -19 0 -11 5 -23 10 -26 6 -4 8 -10 5 -14 -2 -5 28
-23 68 -41 39 -17 87 -46 105 -63 l32 -31 0 335 0 334 -21 -34 c-14 -24 -25
-32 -39 -28 -11 3 -20 1 -20 -5 0 -5 -4 -7 -8 -4 -9 5 -24 -20 -36 -56 -2 -9
-15 -22 -27 -28 -12 -7 -19 -8 -15 -2 3 5 0 12 -7 15 -7 2 -13 18 -15 33 -1
20 -17 43 -49 74 -27 24 -49 43 -51 42 -1 -1 -18 5 -38 13 -46 19 -78 19 -94
1 -11 -14 -44 -11 -36 3 3 4 -4 26 -14 49 -20 45 -51 59 -44 20 3 -17 1 -16
-7 5 -6 15 -15 25 -20 21 -5 -3 -9 0 -9 6 0 8 -6 8 -20 0 -11 -6 -17 -16 -14
-22 4 -7 3 -8 -4 -4 -9 5 -9 13 0 29 7 12 12 25 13 29 0 3 3 10 8 14 12 13 8
36 -10 51 -10 8 -12 12 -5 8 19 -10 14 6 -10 32 -17 19 -18 23 -6 23 10 0 15
7 13 18 -1 9 0 21 3 27 4 5 7 26 9 45 2 19 7 47 12 63 6 15 9 61 7 102 -2 58
1 78 12 88 13 10 15 9 9 -6 -6 -15 -4 -16 13 -7 22 12 27 1 9 -17 -14 -14 -23
-130 -10 -137 5 -4 12 -2 16 4 4 6 11 7 17 4 7 -4 8 -2 4 4 -5 8 2 12 21 13
15 1 39 3 53 5 26 3 83 4 240 3 97 0 130 -12 130 -46 0 -7 4 -13 9 -13 8 0 12
-70 13 -292 1 -65 5 -118 10 -118 4 0 8 326 8 725 l0 725 -910 0 c-500 0 -910
-4 -910 -8z m108 -22 c3 -12 2 -12 -6 -2 -7 11 -10 10 -16 -3 -3 -9 -6 -27 -6
-39 0 -13 -6 -23 -15 -23 -18 0 -20 14 -3 19 7 3 8 9 3 18 -5 8 -10 22 -10 31
-2 20 47 19 53 -1z m95 -107 c-3 -7 -6 -13 -8 -13 -2 0 -5 6 -8 13 -3 8 1 14
8 14 7 0 11 -6 8 -14z m600 -130 c3 -5 -5 -8 -18 -8 -13 0 -21 3 -18 8 2 4 10
7 18 7 8 0 16 -3 18 -7z m-158 -63 c3 -5 1 -10 -4 -10 -6 0 -11 5 -11 10 0 6
2 10 4 10 3 0 8 -4 11 -10z m581 -235 c16 -12 16 -14 3 -15 -9 0 -22 7 -29 15
-16 19 0 19 26 0z m-616 -5 c0 -5 -2 -10 -4 -10 -3 0 -8 5 -11 10 -3 6 -1 10
4 10 6 0 11 -4 11 -10z m606 -36 c37 -28 45 -47 17 -37 -11 3 -7 -6 12 -24 17
-16 34 -27 39 -25 5 3 6 0 2 -6 -3 -6 -1 -14 5 -17 5 -4 8 -13 5 -20 -3 -8 1
-18 7 -24 7 -5 12 -23 11 -38 -3 -36 -2 -35 -14 -28 -6 3 -6 15 0 29 7 19 4
28 -10 41 -11 10 -17 21 -15 25 3 4 -2 13 -10 20 -8 7 -12 16 -9 21 3 5 -2 6
-10 3 -10 -4 -18 1 -23 12 -3 11 -11 22 -17 26 -7 5 -6 8 3 8 10 0 5 10 -14
30 -35 37 -25 39 21 4z m-511 -53 c3 -5 1 -12 -4 -15 -5 -4 -8 -14 -6 -24 2
-9 4 -20 4 -24 1 -5 6 -8 12 -8 6 0 9 7 5 15 -8 21 1 19 13 -3 8 -14 6 -18
-10 -19 -10 -1 -24 7 -29 18 -7 11 -16 17 -23 13 -7 -4 -5 1 4 12 9 10 14 25
12 32 -5 14 13 17 22 3z m666 -74 c-10 -9 -11 -8 -5 6 3 10 9 15 12 12 3 -3 0
-11 -7 -18z m-28 -42 c-3 -9 -8 -14 -10 -11 -3 3 -2 9 2 15 9 16 15 13 8 -4z
m-597 -358 c-1 -29 -4 -33 -24 -29 -50 10 -37 50 19 61 4 0 6 -14 5 -32z
m-101 -258 c-7 -22 -13 -46 -15 -64 -1 -12 -23 24 -26 43 -2 8 3 11 12 8 9 -3
12 -1 9 4 -7 12 2 30 16 30 6 0 7 -9 4 -21z m1001 -387 c1 -32 -15 -54 -41
-58 -20 -3 -26 22 -14 53 20 52 53 55 55 5z m-1169 -224 c-3 -8 -6 -5 -6 6 -1
11 2 17 5 13 3 -3 4 -12 1 -19z m768 -118 c-3 -5 -12 -10 -18 -10 -7 0 -6 4 3
10 19 12 23 12 15 0z m180 -22 c5 4 5 1 0 -7 -4 -8 -2 -17 6 -22 10 -6 11 -9
2 -9 -7 0 -13 -4 -13 -10 0 -5 6 -7 13 -4 10 3 14 -4 15 -26 0 -16 8 -37 16
-46 20 -19 20 -21 1 -21 -8 0 -12 4 -9 8 2 4 0 10 -6 14 -5 3 -11 1 -11 -4 -2
-12 -5 -26 -9 -38 -1 -5 -2 -12 -1 -16 1 -5 -3 -6 -8 -3 -5 4 -8 15 -6 26 2
11 0 22 -6 25 -5 4 -9 18 -10 33 l-1 27 -7 -25 -8 -25 -5 25 c-5 21 -5 20 -7
-8 0 -18 -5 -31 -10 -27 -6 3 -6 17 -1 35 9 30 -1 47 -19 35 -5 -3 -12 -1 -16
5 -3 5 -2 10 4 10 6 0 8 6 5 14 -7 19 15 31 29 17 9 -9 8 -11 -5 -6 -25 10
-22 -8 4 -31 20 -18 21 -18 15 -1 -4 10 -3 16 2 12 5 -3 16 -2 25 1 12 5 13
10 4 30 -6 13 -15 21 -21 17 -6 -4 -7 -1 -2 7 6 10 11 10 20 -3 7 -9 16 -13
20 -9z m42 -25 c-4 -3 -1 -13 6 -22 11 -14 10 -14 -5 -2 -16 12 -16 31 -1 31
4 0 3 -3 0 -7z m0 -75 c-3 -7 -5 -2 -5 12 0 14 2 19 5 13 2 -7 2 -19 0 -25z
m-67 -53 c0 -8 -3 -16 -7 -18 -5 -3 -8 5 -8 18 0 13 3 21 8 18 4 -2 7 -10 7
-18z m-37 -80 c-9 -15 -11 -15 -23 0 -11 13 -10 15 4 9 10 -4 16 -1 16 7 0 7
3 10 6 6 3 -3 2 -13 -3 -22z m-113 -76 c0 -13 4 -18 12 -13 7 5 8 3 3 -5 -5
-9 -10 -10 -18 -2 -14 14 -18 41 -6 41 5 0 9 -9 9 -21z"/>
<path d="M886 2603 c-6 -14 -5 -15 5 -6 7 7 10 15 7 18 -3 3 -9 -2 -12 -12z"/>
<path d="M2210 435 c-11 -13 -11 -16 0 -13 8 2 15 -6 17 -17 9 -44 14 -51 24
-33 9 16 9 72 0 63 -2 -3 -10 0 -16 5 -9 7 -16 5 -25 -5z m39 -39 c-1 -20 -2
-20 -6 -1 -3 11 -10 27 -17 35 -10 13 -9 13 7 1 9 -7 16 -23 16 -35z"/>
<path d="M645 2600 c-4 -7 -2 -17 4 -23 9 -9 11 -7 6 8 -7 20 -6 20 9 1 9 -11
16 -15 16 -9 0 18 -27 36 -35 23z"/>
<path d="M664 2544 c3 -23 13 -26 18 -6 3 11 0 19 -7 19 -7 0 -12 -6 -11 -13z"/>
<path d="M695 2539 c-4 -6 -5 -12 -2 -15 2 -3 7 2 10 11 7 17 1 20 -8 4z"/>
<path d="M742 2541 c-11 -7 -10 -9 3 -15 9 -3 13 -10 10 -16 -4 -6 1 -7 11 -3
15 5 15 7 0 15 -9 5 -14 13 -11 19 7 11 4 11 -13 0z"/>
<path d="M467 2479 c-9 -6 -15 -14 -12 -19 3 -5 1 -20 -5 -32 -11 -22 -10 -22
4 -4 9 11 16 26 16 33 0 7 4 13 9 13 13 0 1 -41 -17 -62 -8 -10 -10 -18 -5
-18 6 0 14 8 17 17 6 14 9 15 15 4 5 -7 7 5 5 29 -3 50 -4 51 -27 39z"/>
<path d="M110 2444 c0 -8 5 -12 10 -9 6 4 8 11 5 16 -9 14 -15 11 -15 -7z"/>
<path d="M530 2456 c0 -2 7 -7 16 -10 8 -3 12 -2 9 4 -6 10 -25 14 -25 6z"/>
<path d="M599 2423 c-13 -16 -12 -17 4 -4 9 7 17 15 17 17 0 8 -8 3 -21 -13z"/>
<path d="M571 2414 c0 -11 3 -14 6 -6 3 7 2 16 -1 19 -3 4 -6 -2 -5 -13z"/>
<path d="M545 2410 c3 -5 8 -10 11 -10 2 0 4 5 4 10 0 6 -5 10 -11 10 -5 0 -7
-4 -4 -10z"/>
<path d="M1419 2257 c7 -7 14 -8 21 -1 6 6 2 10 -12 11 -16 2 -18 -1 -9 -10z"/>
<path d="M1429 2023 c-13 -17 -13 -17 5 -3 18 14 19 13 13 -3 -5 -12 -3 -16 5
-11 7 5 9 2 6 -8 -4 -8 0 -15 7 -15 11 0 11 6 -1 29 -17 33 -18 33 -35 11z"/>
<path d="M19 1869 c-11 -7 -11 -9 -1 -9 8 0 10 -5 5 -12 -4 -7 -8 -29 -8 -48
0 -19 -3 -39 -7 -45 -11 -19 -9 -135 2 -135 6 0 8 -4 5 -10 -4 -6 2 -6 17 0
13 6 31 13 41 16 9 4 17 16 17 27 0 11 7 29 16 39 16 16 15 18 -7 27 -13 5
-27 7 -31 5 -3 -2 -4 5 -1 15 3 13 12 18 25 16 12 -3 17 -1 14 3 -4 4 -13 7
-19 7 -7 0 -12 5 -12 12 0 6 -3 15 -7 18 -4 4 -3 15 2 25 5 10 6 21 2 25 -4 3
-7 11 -7 17 0 14 -28 18 -46 7z m35 -10 c-2 -4 0 -10 6 -14 6 -4 7 -12 0 -24
-6 -12 -5 -22 1 -28 7 -7 5 -12 -6 -17 -13 -4 -16 -2 -12 9 4 8 2 17 -2 19 -5
3 -8 -11 -7 -31 1 -24 -4 -38 -14 -40 -10 -3 -11 -2 -4 4 7 4 11 29 10 56 -2
26 1 50 6 53 5 3 6 9 4 13 -3 4 1 8 9 8 8 0 12 -4 9 -8z m10 -104 c-4 -8 -8
-15 -10 -15 -2 0 -4 7 -4 15 0 8 4 15 10 15 5 0 7 -7 4 -15z"/>
<path d="M36 1842 c-2 -4 -1 -14 3 -21 6 -10 10 -9 14 3 6 16 -8 32 -17 18z"/>
<path d="M276 1678 c3 -5 10 -6 15 -3 13 9 11 12 -6 12 -8 0 -12 -4 -9 -9z"/>
<path d="M102 1660 c0 -14 2 -19 5 -12 2 6 2 18 0 25 -3 6 -5 1 -5 -13z"/>
<path d="M476 1647 c3 -10 9 -15 12 -12 3 3 0 11 -7 18 -10 9 -11 8 -5 -6z"/>
<path d="M1025 1629 c6 -33 15 -36 15 -6 0 15 -4 27 -9 27 -6 0 -8 -10 -6 -21z"/>
<path d="M538 1621 c5 -14 4 -14 -14 -1 -15 11 -16 11 -6 0 16 -18 15 -32 -3
-56 -14 -18 -15 -17 -5 8 6 19 6 29 -2 34 -6 4 -9 3 -5 -2 3 -5 -1 -20 -9 -34
l-15 -25 6 30 c4 26 3 28 -7 14 -11 -14 -15 -14 -26 -3 -10 12 -10 14 3 14 20
0 15 22 -6 28 -11 3 -11 2 -1 -6 11 -7 10 -10 -3 -16 -12 -4 -16 -14 -13 -30
3 -14 1 -31 -3 -38 -7 -11 -9 -11 -9 0 0 7 -4 11 -9 7 -5 -3 -12 -1 -16 4 -3
6 -12 8 -20 5 -10 -4 -12 1 -9 18 l5 23 -10 -22 c-6 -13 -15 -23 -21 -23 -5 0
-10 -8 -11 -17 0 -15 -2 -15 -8 2 -5 12 -4 23 3 28 7 6 6 7 -4 4 -8 -2 -14
-10 -12 -16 1 -7 -2 -10 -8 -6 -5 3 -10 0 -10 -7 -1 -17 -20 16 -25 44 -7 33
-15 34 -16 2 -1 -16 -1 -32 -1 -35 1 -4 -8 -4 -20 -1 -17 4 -20 2 -15 -11 4
-10 3 -17 -1 -17 -4 0 -8 -8 -9 -17 0 -10 -3 -42 -5 -70 -3 -29 -2 -53 2 -53
10 0 2 -117 -9 -138 -5 -9 -8 -57 -6 -107 3 -98 -1 -112 -63 -197 -35 -49 -36
-50 -77 -45 l-42 6 -1 -110 c-1 -82 2 -108 11 -102 9 5 9 3 0 -8 -7 -9 -12
-63 -12 -146 -1 -116 0 -133 14 -133 9 0 13 4 10 10 -6 9 8 14 27 11 5 0 7 5
5 12 -1 6 5 11 13 9 8 -2 12 0 8 3 -4 4 -3 16 3 27 10 19 24 17 24 -3 0 -12
20 -12 21 1 3 23 5 24 14 10 5 -9 5 -19 -1 -26 -6 -7 -4 -16 6 -24 8 -7 15 -9
15 -5 0 4 8 -1 18 -12 9 -10 14 -14 10 -9 -13 17 -9 29 6 17 10 -9 16 -9 21
-1 5 8 12 7 23 -2 15 -12 16 -11 3 4 -8 11 -9 18 -3 18 6 0 14 -5 17 -10 5 -8
11 -8 19 -1 9 7 16 7 25 -2 7 -6 11 -7 10 -2 -4 16 20 65 31 65 5 0 9 5 7 11
-1 6 5 14 13 16 12 4 12 3 2 -5 -8 -5 -13 -12 -13 -16 3 -19 0 -27 -8 -21 -6
3 -9 -4 -8 -15 1 -11 2 -20 3 -20 10 0 53 93 48 102 -4 6 -3 8 3 5 6 -4 18 6
28 21 9 15 33 42 53 60 21 19 31 31 23 26 -9 -5 -12 -3 -7 5 4 6 11 9 16 6 5
-3 26 1 46 10 20 8 45 15 56 15 10 0 17 4 14 8 -2 4 11 6 30 4 20 -3 34 0 34
6 0 6 -8 9 -18 7 -11 -2 -19 3 -19 10 0 8 7 11 15 7 9 -3 13 -1 9 5 -4 6 2 13
12 16 12 3 22 -1 26 -11 5 -14 7 -14 15 -2 6 10 3 21 -8 34 -9 11 -12 17 -7
13 6 -3 12 4 12 16 1 13 -1 17 -5 10 -4 -7 -17 -11 -28 -11 -27 2 -31 55 -7
100 16 30 21 33 53 28 l35 -6 -1 40 c-1 23 3 55 10 73 12 36 70 103 88 103 6
0 8 3 4 7 -4 4 10 15 31 25 l38 17 -57 -2 c-32 -1 -58 1 -58 5 0 7 16 10 36 7
4 0 11 5 15 13 7 10 9 10 9 0 0 -7 5 -10 10 -7 6 4 25 8 42 11 52 6 63 25 65
112 2 42 4 95 7 117 2 22 0 50 -5 62 -5 15 -5 23 2 23 6 0 7 5 3 11 -4 7 -13
1 -23 -15 -10 -14 -20 -24 -23 -21 -3 3 -11 -1 -17 -9 -20 -23 -42 -9 -31 19
6 15 6 27 0 30 -9 6 -14 -1 -11 -17 0 -4 -6 -5 -14 -2 -8 4 -15 1 -15 -5 0 -6
3 -10 8 -8 4 1 8 -2 10 -8 2 -5 11 -19 20 -30 9 -11 10 -15 3 -8 -7 6 -19 9
-26 7 -8 -3 -12 2 -12 13 2 13 -4 17 -18 15 -13 -2 -16 0 -8 5 8 6 4 12 -13
20 -21 10 -23 9 -13 -8 5 -11 6 -19 0 -19 -5 0 -12 7 -15 15 -5 13 -10 14 -27
4 -17 -9 -20 -8 -14 2 6 9 3 11 -8 6 -10 -3 -17 -3 -17 1 0 8 -22 12 -78 14
-25 0 -32 4 -28 15 10 25 -5 35 -25 17 -21 -19 -26 -6 -6 15 10 11 9 12 -2 6
-11 -6 -13 -4 -7 10 5 14 4 15 -7 7 -14 -12 -43 0 -34 15 3 5 0 10 -7 10 -9 0
-12 -7 -8 -16z m26 -32 c23 3 30 0 16 -9 -8 -5 -11 -10 -7 -10 5 0 5 -5 2 -11
-5 -6 -12 -4 -21 8 -12 17 -13 17 -10 -3 3 -13 -1 -21 -9 -21 -8 0 -11 5 -7
11 7 12 9 18 11 44 1 13 3 14 10 4 4 -8 11 -13 15 -13z m66 -19 c0 -5 -5 -10
-11 -10 -5 0 -7 5 -4 10 3 6 8 10 11 10 2 0 4 -4 4 -10z m-266 -41 c-3 -5 -10
-7 -15 -3 -5 3 -7 10 -3 15 3 5 10 7 15 3 5 -3 7 -10 3 -15z m30 5 c3 -8 2
-12 -4 -9 -6 3 -10 10 -10 16 0 14 7 11 14 -7z m299 -19 c-22 -16 -38 -8 -23
10 6 8 18 11 26 8 12 -4 12 -8 -3 -18z m41 -16 c-3 -5 -10 -7 -15 -3 -5 3 -7
10 -3 15 3 5 10 7 15 3 5 -3 7 -10 3 -15z m57 -2 c-10 -9 -11 -8 -5 6 3 10 9
15 12 12 3 -3 0 -11 -7 -18z m196 9 c-3 -8 -3 -17 1 -19 4 -2 1 -2 -7 0 -8 2
-11 -2 -7 -12 8 -22 -2 -18 -15 6 -8 15 -8 19 0 15 6 -4 14 0 17 8 3 9 8 16
11 16 3 0 3 -6 0 -14z m-456 -52 c15 -7 28 -11 31 -9 2 2 23 -13 46 -33 28
-25 43 -46 44 -64 1 -16 5 -28 9 -28 4 0 12 -26 18 -57 17 -86 18 -112 7 -110
-6 1 -10 -2 -11 -8 0 -5 -4 -16 -9 -24 -6 -9 -5 -12 1 -8 13 8 33 -40 30 -74
-2 -31 -31 -32 -75 0 -16 11 -32 18 -35 14 -4 -3 -9 2 -13 11 -3 9 -10 14 -14
11 -5 -3 -12 0 -16 6 -4 8 -3 9 4 5 7 -4 12 -1 12 7 0 22 26 41 34 25 5 -10 7
-10 12 1 5 11 8 11 15 0 6 -10 9 -6 9 14 0 19 -4 26 -12 21 -8 -5 -9 -2 -4 11
5 14 4 16 -7 7 -8 -7 -17 -9 -20 -5 -4 3 -7 0 -7 -8 -1 -10 -4 -9 -11 4 -15
26 -31 9 -24 -26 3 -18 3 -27 -2 -22 -4 6 -15 10 -23 10 -8 0 -18 4 -22 10 -5
6 -8 5 -8 -4 0 -11 -5 -10 -24 3 -18 11 -27 13 -32 4 -5 -7 -3 -8 6 -3 9 5 11
4 6 -4 -6 -8 -12 -9 -20 -2 -7 6 -16 8 -19 4 -4 -3 -7 -1 -7 6 0 7 -5 9 -12 5
-7 -4 -8 -3 -4 4 4 7 2 12 -3 12 -6 0 -11 8 -10 18 0 12 2 13 6 3 5 -11 7 -11
14 0 7 12 9 12 9 0 0 -10 3 -11 14 -2 11 9 16 9 22 0 5 -8 3 -9 -6 -4 -9 5
-11 4 -6 -4 10 -15 27 -4 20 13 -6 14 23 15 46 1 13 -8 13 -6 1 8 -7 9 -18 14
-24 10 -6 -4 -7 -1 -3 6 5 7 15 10 23 6 14 -5 14 -3 2 12 -12 15 -12 16 4 10
10 -4 16 -3 12 2 -6 11 26 71 39 71 5 0 3 -6 -3 -14 -8 -10 -9 -16 -1 -21 6
-4 9 -3 8 2 -1 4 3 18 10 29 10 18 9 24 -6 35 -15 12 -16 12 -7 -1 6 -10 4 -9
-6 1 -13 14 -19 15 -28 6 -9 -9 -11 -8 -5 7 5 13 4 17 -4 12 -7 -4 -12 -2 -12
4 0 6 -4 9 -9 5 -5 -3 -12 -1 -15 4 -4 5 -17 8 -31 6 -14 -1 -25 2 -25 7 0 5
-5 6 -11 2 -6 -3 -15 0 -20 7 -7 12 -9 11 -9 -1 0 -9 -8 -16 -17 -17 -19 -1
-53 -8 -83 -18 -18 -6 -33 7 -36 33 -1 6 2 10 7 6 5 -3 9 -1 9 5 0 17 59 42
101 43 21 0 39 4 39 7 0 13 114 9 141 -5z m444 -14 c10 -11 16 -20 13 -20 -3
0 -13 9 -23 20 -10 11 -16 20 -13 20 3 0 13 -9 23 -20z m-75 -126 c0 -8 -19
-13 -24 -6 -3 5 1 9 9 9 8 0 15 -2 15 -3z m-851 -591 c-1 -5 -1 -15 0 -23 1
-13 2 -13 11 0 8 13 10 13 10 -2 0 -10 -7 -16 -19 -15 -15 1 -22 26 -12 45 3
5 11 1 10 -5z m415 -72 c7 -10 -19 -34 -41 -37 -10 -2 -11 1 -4 10 6 7 7 17 3
22 -4 4 0 3 10 -4 10 -8 19 -9 22 -3 3 5 0 12 -6 14 -9 4 -10 6 -1 6 6 1 14
-3 17 -8z m-319 -30 c-2 -9 -4 -17 -4 -18 -1 -2 -1 -6 -2 -10 0 -5 -6 -15 -12
-23 -10 -13 -10 -13 5 -1 10 7 15 17 12 22 -3 5 -1 9 4 9 5 0 12 -8 15 -17 2
-10 8 -27 13 -38 7 -18 6 -18 -9 -6 -9 7 -14 18 -10 24 3 5 1 7 -5 4 -12 -8
-10 -29 4 -48 6 -8 9 -24 8 -36 -1 -13 -2 -30 -3 -39 0 -8 -6 -12 -12 -8 -7 4
-8 9 0 17 7 7 7 16 0 29 -5 10 -7 18 -3 18 4 0 0 8 -9 18 -10 10 -14 22 -10
27 5 4 3 5 -3 2 -15 -9 -25 16 -13 34 5 8 9 19 8 24 0 6 -6 -1 -14 -15 -12
-21 -12 -28 1 -47 7 -12 10 -24 5 -28 -5 -3 -14 7 -19 22 l-10 28 1 -31 c2
-31 10 -36 34 -21 17 11 25 -9 9 -22 -10 -9 -16 -9 -21 -1 -5 8 -10 8 -20 0
-10 -8 -15 -8 -21 1 -4 7 -2 15 4 17 7 2 12 8 12 13 0 6 -4 7 -10 4 -11 -7 -2
23 12 42 6 7 7 17 3 23 -3 5 1 13 10 16 9 4 14 12 12 18 -3 7 5 12 18 12 15 0
22 -5 20 -15z m246 -48 c13 -16 12 -17 -3 -4 -17 13 -22 21 -14 21 2 0 10 -8
17 -17z m-190 -18 c5 4 6 -2 2 -11 -4 -12 -3 -15 5 -10 8 5 10 2 5 -9 -5 -13
-7 -14 -14 -3 -7 10 -9 9 -9 -4 0 -9 5 -20 10 -23 6 -3 10 -12 9 -18 0 -9 -2
-8 -6 1 -2 6 -9 9 -14 6 -6 -3 -6 -11 2 -20 6 -7 15 -11 20 -8 21 12 59 14 59
2 0 -6 6 -4 13 7 11 13 16 15 22 6 4 -7 2 -18 -4 -24 -6 -6 -11 -7 -11 -3 0 5
-6 3 -14 -3 -10 -9 -16 -8 -26 4 -11 14 -14 13 -27 -5 -11 -15 -18 -18 -27
-11 -7 6 -16 8 -19 4 -4 -3 -5 11 -3 33 2 25 -2 46 -13 59 -15 18 -15 19 1 7
17 -14 31 -3 25 20 -2 7 -2 10 0 5 3 -4 9 -5 14 -2z m49 -14 c0 -6 -4 -12 -8
-15 -5 -3 -9 1 -9 9 0 8 4 15 9 15 4 0 8 -4 8 -9z m-187 -72 c4 -3 -1 -13 -12
-23 -13 -12 -21 -14 -26 -6 -4 6 -1 9 7 8 8 -2 12 5 10 21 -1 14 1 21 5 15 5
-5 11 -11 16 -15z"/>
<path d="M250 1376 c7 -7 13 -7 20 0 6 6 3 10 -10 10 -13 0 -16 -4 -10 -10z"/>
<path d="M390 1166 c0 -3 9 -10 20 -16 11 -6 20 -8 20 -6 0 3 -9 10 -20 16
-11 6 -20 8 -20 6z"/>
<path d="M516 1147 c3 -10 9 -15 12 -12 3 3 0 11 -7 18 -10 9 -11 8 -5 -6z"/>
<path d="M570 1098 c0 -7 4 -19 9 -27 6 -9 9 -5 9 13 0 14 -4 26 -9 26 -5 0
-9 -6 -9 -12z"/>
<path d="M180 457 c0 -2 6 -10 14 -16 11 -9 16 -9 22 1 4 7 4 10 -1 6 -4 -4
-14 -3 -22 3 -7 6 -13 9 -13 6z"/>
<path d="M390 1610 c-8 -16 -8 -20 4 -20 9 0 13 -7 11 -18 -2 -11 3 -19 10
-19 10 0 11 7 5 23 -6 14 -5 26 0 29 6 4 10 11 10 18 0 6 -7 2 -16 -9 -13 -16
-15 -16 -10 -1 7 23 -1 22 -14 -3z"/>
<path d="M617 1609 c7 -7 15 -10 18 -7 3 3 -2 9 -12 12 -14 6 -15 5 -6 -5z"/>
<path d="M274 1586 c6 -34 12 -41 19 -24 2 8 -2 23 -10 33 -13 19 -14 18 -9
-9z"/>
<path d="M1230 1595 c-7 -9 -8 -15 -2 -15 5 0 12 7 16 15 3 8 4 15 2 15 -2 0
-9 -7 -16 -15z"/>
<path d="M330 1591 c0 -6 4 -13 10 -16 6 -3 7 1 4 9 -7 18 -14 21 -14 7z"/>
<path d="M220 1569 c0 -5 5 -7 10 -4 6 3 10 8 10 11 0 2 -4 4 -10 4 -5 0 -10
-5 -10 -11z"/>
<path d="M647 1567 c-3 -8 0 -14 7 -14 7 0 13 6 13 14 0 7 -4 13 -8 13 -4 0
-9 -6 -12 -13z"/>
<path d="M2106 1551 c-8 -12 4 -71 14 -71 4 0 4 16 0 34 -4 19 -5 37 -2 40 3
4 3 6 -1 6 -3 0 -8 -4 -11 -9z"/>
<path d="M1199 1368 c-6 -23 -7 -48 -1 -52 4 -2 7 9 7 25 1 24 -2 38 -6 27z"/>
<path d="M1215 1299 c-4 -6 -4 -13 -1 -16 3 -4 6 -1 6 6 0 7 5 9 12 5 7 -4 8
-3 4 4 -9 15 -13 15 -21 1z"/>
<path d="M991 1200 c-13 -23 -29 -44 -37 -47 -8 -3 -11 -10 -7 -16 4 -6 1 -7
-6 -2 -8 4 -34 -8 -66 -30 -74 -51 -117 -139 -83 -173 7 -7 8 -12 3 -12 -6 0
-4 -4 4 -9 8 -5 15 -17 16 -28 3 -29 16 -53 26 -47 5 3 6 -3 2 -12 -5 -13 -3
-15 7 -9 9 5 11 4 6 -4 -7 -11 3 -18 39 -23 11 -2 25 -8 30 -13 6 -6 9 -8 8
-6 -2 2 5 9 13 16 12 8 17 27 17 63 0 28 4 49 8 46 8 -5 14 18 10 39 -1 5 3 6
8 3 5 -4 12 -3 15 2 3 5 19 7 36 4 26 -4 30 -1 29 19 -1 36 -24 92 -39 97 -8
3 -10 0 -5 -9 5 -8 -4 -3 -18 10 -27 25 -35 37 -17 26 6 -3 10 4 10 17 0 18
-2 20 -10 8 -6 -9 -10 -10 -10 -3 0 6 5 15 10 18 8 5 7 12 -2 23 -12 15 -11
16 4 3 10 -7 16 -17 13 -21 -3 -5 -1 -11 5 -15 6 -4 7 -11 4 -17 -4 -7 -2 -8
5 -4 8 5 9 12 3 19 -5 7 -8 19 -6 27 1 8 5 24 7 35 2 11 1 31 -2 43 -6 23 -8
21 -30 -18z"/>
<path d="M1005 1070 c3 -5 8 -10 11 -10 2 0 4 5 4 10 0 6 -5 10 -11 10 -5 0
-7 -4 -4 -10z"/>
<path d="M2008 973 c7 -3 16 -2 19 1 4 3 -2 6 -13 5 -11 0 -14 -3 -6 -6z"/>
<path d="M1203 935 c0 -8 4 -12 9 -9 5 3 6 10 3 15 -9 13 -12 11 -12 -6z"/>
<path d="M1840 940 c-20 -12 -10 -19 14 -10 11 3 15 9 10 13 -6 3 -16 2 -24
-3z"/>
<path d="M761 817 c-13 -12 -21 -17 -17 -10 3 6 3 14 -2 17 -13 8 -13 -55 0
-72 11 -13 11 -14 -1 -7 -11 6 -13 4 -8 -8 4 -11 -1 -17 -16 -20 -12 -2 6 -5
39 -6 58 -1 61 0 60 22 -1 14 4 21 13 19 12 -3 12 0 2 11 -8 11 -9 16 -1 19 6
2 -2 16 -17 31 l-29 27 -23 -23z m22 -2 c-3 -9 -8 -14 -10 -11 -3 3 -2 9 2 15
9 16 15 13 8 -4z"/>
<path d="M2035 740 c3 -5 8 -10 11 -10 2 0 4 5 4 10 0 6 -5 10 -11 10 -5 0 -7
-4 -4 -10z"/>
<path d="M1980 730 c0 -6 12 -15 28 -21 40 -16 62 -19 62 -9 0 5 -16 12 -35
16 -19 3 -35 10 -35 15 0 5 -4 9 -10 9 -5 0 -10 -5 -10 -10z"/>
<path d="M2130 700 c0 -5 5 -10 11 -10 5 0 7 5 4 10 -3 6 -8 10 -11 10 -2 0
-4 -4 -4 -10z"/>
<path d="M2301 666 c2 -2 15 -9 29 -15 24 -11 24 -11 6 3 -16 13 -49 24 -35
12z"/>
<path d="M1527 609 c4 -13 8 -18 11 -10 2 7 -1 18 -6 23 -8 8 -9 4 -5 -13z"/>
<path d="M2230 605 c-1 -5 -3 -17 -5 -26 -3 -17 10 -19 33 -6 16 11 34 -1 26
-16 -4 -7 -4 -9 1 -5 4 4 13 4 19 -2 8 -6 12 -2 13 13 2 17 0 19 -7 7 -9 -13
-14 -8 -11 12 0 3 -11 5 -25 3 -14 -1 -28 4 -34 14 -5 9 -10 12 -10 6z"/>
<path d="M875 580 c-3 -5 -1 -10 4 -10 6 0 11 5 11 10 0 6 -2 10 -4 10 -3 0
-8 -4 -11 -10z"/>
<path d="M1170 576 c0 -8 50 -44 54 -38 2 4 -9 15 -25 24 -16 10 -29 16 -29
14z"/>
<path d="M1526 569 c3 -5 9 -7 14 -4 4 3 11 0 13 -5 3 -6 4 -5 3 1 -1 7 -10
13 -19 15 -9 1 -15 -2 -11 -7z"/>
<path d="M780 539 c0 -5 5 -7 10 -4 6 3 10 8 10 11 0 2 -4 4 -10 4 -5 0 -10
-5 -10 -11z"/>
<path d="M1539 535 c7 -15 6 -24 -5 -36 -13 -15 -13 -17 0 -22 9 -4 18 -1 22
5 4 7 3 8 -4 4 -15 -9 -16 6 -2 20 7 7 5 17 -6 30 -15 19 -15 19 -5 -1z"/>
<path d="M1975 539 c-10 -15 3 -25 16 -12 7 7 7 13 1 17 -6 3 -14 1 -17 -5z"/>
<path d="M1243 533 c4 -3 1 -13 -6 -22 -11 -14 -10 -14 5 -2 16 12 16 31 1 31
-4 0 -3 -3 0 -7z"/>
<path d="M1601 504 c-13 -7 -29 -20 -34 -30 -11 -20 5 -13 42 20 20 17 23 18
18 4 -9 -27 8 -30 29 -6 11 12 13 18 6 14 -7 -4 -18 -4 -25 2 -8 5 -21 4 -36
-4z"/>
<path d="M2590 510 c0 -5 5 -10 11 -10 5 0 7 5 4 10 -3 6 -8 10 -11 10 -2 0
-4 -4 -4 -10z"/>
<path d="M1966 501 c-4 -5 -2 -12 3 -15 5 -4 12 -2 15 3 4 5 2 12 -3 15 -5 4
-12 2 -15 -3z"/>
<path d="M1675 491 c-3 -5 -1 -12 4 -15 5 -3 11 1 15 9 6 16 -9 21 -19 6z"/>
<path d="M1300 476 c0 -2 7 -7 16 -10 8 -3 12 -2 9 4 -6 10 -25 14 -25 6z"/>
<path d="M1855 465 c-16 -12 -17 -14 -2 -9 22 8 23 -12 1 -24 -11 -6 -13 -12
-6 -16 13 -8 35 28 30 50 -3 13 -5 13 -23 -1z"/>
<path d="M1955 460 c-3 -5 -2 -10 4 -10 5 0 13 5 16 10 3 6 2 10 -4 10 -5 0
-13 -4 -16 -10z"/>
<path d="M1517 445 c-8 -26 -19 -100 -14 -94 18 19 33 68 27 89 -6 23 -7 23
-13 5z"/>
<path d="M1573 447 c-9 -14 6 -21 21 -8 11 9 15 9 18 0 3 -9 9 -9 24 -1 22 13
21 14 -24 16 -18 1 -36 -2 -39 -7z"/>
<path d="M1670 449 c0 -5 5 -7 10 -4 6 3 10 8 10 11 0 2 -4 4 -10 4 -5 0 -10
-5 -10 -11z"/>
<path d="M1709 453 c-1 -5 -1 -12 0 -17 1 -5 -4 -13 -10 -17 -10 -6 -10 -11 0
-23 11 -13 11 -16 -3 -16 -21 0 -20 -9 2 -27 9 -8 12 -12 5 -9 -6 4 -13 1 -15
-5 -2 -7 -17 -13 -33 -13 -26 -2 -30 -6 -30 -30 -1 -15 3 -30 7 -32 5 -3 8 -2
7 3 -1 4 3 19 10 33 l12 25 -6 -25 c-2 -14 -5 -33 -5 -43 0 -11 -4 -15 -12
-11 -8 5 -9 1 -5 -12 6 -17 6 -17 -5 -3 -7 9 -18 14 -25 12 -15 -5 -47 42 -38
57 3 6 10 8 15 5 4 -3 10 1 13 9 8 21 -27 14 -35 -7 -6 -14 -12 -16 -27 -8
-10 6 -21 7 -25 3 -4 -3 -4 2 0 12 6 15 3 17 -13 12 -14 -5 -23 -1 -27 10 -3
9 -12 14 -19 11 -14 -5 -39 18 -30 27 4 3 0 6 -8 6 -10 1 -8 5 5 15 11 8 17
17 15 20 -3 2 -17 -7 -32 -21 -16 -15 -27 -20 -27 -12 0 9 -3 9 -10 -2 -8 -13
-10 -13 -10 2 0 12 -5 15 -17 11 -13 -5 -15 -2 -10 13 6 16 5 17 -5 4 -23 -27
-93 -5 -81 26 3 8 0 14 -7 14 -6 0 -9 -4 -5 -9 6 -10 -11 -24 -32 -27 -7 -1
-13 2 -13 8 0 6 -6 5 -15 -2 -12 -10 -18 -10 -30 0 -13 11 -14 10 -9 -5 6 -14
4 -16 -7 -10 -12 7 -12 6 -1 -7 7 -9 11 -32 9 -52 -4 -35 -4 -36 13 -19 10 10
15 22 12 27 -3 5 0 6 7 2 6 -4 9 -11 6 -15 -2 -5 7 -13 21 -20 14 -6 23 -14
21 -19 -3 -4 1 -12 8 -19 11 -10 15 -10 19 0 3 7 4 2 3 -10 -1 -12 2 -21 8
-20 5 1 9 9 7 17 -1 8 4 3 13 -11 15 -28 14 -45 -4 -92 -7 -18 -15 -26 -23
-21 -7 4 -10 4 -6 -1 4 -4 3 -14 -3 -21 -7 -8 -6 -14 2 -20 7 -4 9 -3 6 3 -4
6 1 17 10 24 15 12 16 12 11 -3 -4 -9 -4 -19 0 -23 4 -4 7 -20 7 -36 0 -26 -1
-28 -13 -12 -8 11 -9 19 -2 21 5 2 10 8 10 14 0 7 -5 6 -14 -2 -8 -6 -12 -19
-9 -28 3 -10 -3 -7 -16 8 l-22 25 12 -28 c7 -15 16 -27 20 -27 4 0 5 -9 2 -20
-5 -20 0 -20 229 -20 129 0 237 2 240 6 3 3 1 22 -4 42 -6 20 -11 47 -12 60 0
12 -4 22 -8 22 -5 0 -8 5 -8 11 0 5 5 7 12 3 7 -5 9 -2 5 9 -3 9 -1 18 6 20 7
2 9 8 5 12 -4 4 -13 3 -20 -3 -10 -8 -14 -1 -16 34 -2 38 1 44 18 45 40 3 43
4 50 24 4 11 6 30 5 42 -1 15 3 20 16 18 16 -3 17 -1 6 16 -6 10 -20 22 -29
25 -18 5 -25 24 -10 24 4 0 7 11 7 25 0 22 -13 37 -16 18z m21 -77 c0 -3 -4
-8 -10 -11 -5 -3 -10 -1 -10 4 0 6 5 11 10 11 6 0 10 -2 10 -4z m-453 -231 c0
-8 -4 -12 -9 -9 -5 3 -6 10 -3 15 9 13 12 11 12 -6z"/>
<path d="M1145 440 c3 -5 8 -10 11 -10 2 0 4 5 4 10 0 6 -5 10 -11 10 -5 0 -7
-4 -4 -10z"/>
<path d="M1180 446 c0 -2 8 -10 18 -17 15 -13 16 -12 3 4 -13 16 -21 21 -21
13z"/>
<path d="M1260 430 c0 -12 7 -20 17 -20 9 0 13 3 10 7 -4 3 -2 12 4 20 9 10 7
13 -10 13 -14 0 -21 -6 -21 -20z"/>
<path d="M1370 435 c-11 -13 -11 -18 -1 -28 10 -9 12 -8 9 8 -2 12 2 19 10 18
6 -2 12 2 12 7 0 15 -16 12 -30 -5z"/>
<path d="M1472 438 c-15 -15 -16 -41 0 -36 6 2 13 14 15 26 3 25 2 27 -15 10z"/>
<path d="M2090 440 c0 -5 5 -10 10 -10 6 0 10 5 10 10 0 6 -4 10 -10 10 -5 0
-10 -4 -10 -10z"/>
<path d="M1890 415 c-7 -8 -10 -22 -6 -30 6 -17 26 -21 26 -5 0 6 -4 10 -10
10 -5 0 -10 5 -10 10 0 6 5 9 11 8 6 -2 14 3 16 10 6 17 -12 15 -27 -3z"/>
<path d="M1946 421 c-3 -5 1 -11 9 -15 8 -3 15 -1 15 4 0 13 -18 22 -24 11z"/>
<path d="M136 407 c3 -10 9 -15 12 -12 3 3 0 11 -7 18 -10 9 -11 8 -5 -6z"/>
<path d="M805 410 c-3 -5 -1 -10 4 -10 6 0 11 5 11 10 0 6 -2 10 -4 10 -3 0
-8 -4 -11 -10z"/>
<path d="M1560 410 c-9 -6 -10 -10 -3 -10 6 0 15 5 18 10 8 12 4 12 -15 0z"/>
<path d="M1605 410 c-3 -5 -2 -10 4 -10 5 0 13 5 16 10 3 6 2 10 -4 10 -5 0
-13 -4 -16 -10z"/>
<path d="M1650 409 c0 -5 5 -7 10 -4 6 3 10 8 10 11 0 2 -4 4 -10 4 -5 0 -10
-5 -10 -11z"/>
<path d="M2084 405 c-16 -12 -17 -14 -3 -15 9 0 19 7 23 15 7 19 5 19 -20 0z"/>
<path d="M730 399 c0 -5 5 -7 10 -4 6 3 10 8 10 11 0 2 -4 4 -10 4 -5 0 -10
-5 -10 -11z"/>
<path d="M1780 406 c0 -2 6 -9 14 -15 11 -9 16 -9 22 0 4 8 3 9 -4 5 -7 -4
-12 -2 -12 3 0 6 -4 11 -10 11 -5 0 -10 -2 -10 -4z"/>
<path d="M1840 390 c0 -5 5 -10 10 -10 6 0 10 5 10 10 0 6 -4 10 -10 10 -5 0
-10 -4 -10 -10z"/>
<path d="M1935 380 c4 -6 11 -8 16 -5 14 9 11 15 -7 15 -8 0 -12 -5 -9 -10z"/>
<path d="M1975 380 c3 -5 10 -10 16 -10 5 0 9 5 9 10 0 6 -7 10 -16 10 -8 0
-12 -4 -9 -10z"/>
<path d="M1545 370 c-3 -5 -2 -10 4 -10 5 0 13 5 16 10 3 6 2 10 -4 10 -5 0
-13 -4 -16 -10z"/>
<path d="M1595 370 c-3 -5 1 -10 9 -10 9 0 16 5 16 10 0 6 -4 10 -9 10 -6 0
-13 -4 -16 -10z"/>
<path d="M1640 369 c0 -5 5 -7 10 -4 6 3 10 8 10 11 0 2 -4 4 -10 4 -5 0 -10
-5 -10 -11z"/>
<path d="M786 353 c-6 -14 -5 -15 5 -6 7 7 10 15 7 18 -3 3 -9 -2 -12 -12z"/>
<path d="M1787 363 c-4 -3 -7 -11 -7 -17 0 -6 5 -5 12 2 6 6 9 14 7 17 -3 3
-9 2 -12 -2z"/>
<path d="M2065 360 c-8 -13 5 -13 25 0 13 8 13 10 -2 10 -9 0 -20 -4 -23 -10z"/>
<path d="M1826 351 c-3 -5 0 -11 7 -14 8 -3 14 1 14 9 0 16 -13 19 -21 5z"/>
<path d="M1865 340 c-3 -5 3 -10 14 -10 12 0 21 5 21 10 0 6 -6 10 -14 10 -8
0 -18 -4 -21 -10z"/>
<path d="M1920 340 c0 -5 5 -10 10 -10 6 0 10 5 10 10 0 6 -4 10 -10 10 -5 0
-10 -4 -10 -10z"/>
<path d="M1968 338 c9 -9 15 -9 24 0 9 9 7 12 -12 12 -19 0 -21 -3 -12 -12z"/>
<path d="M2055 321 c-3 -5 -1 -12 4 -15 5 -3 11 1 15 9 6 16 -9 21 -19 6z"/>
<path d="M1176 307 c3 -10 9 -15 12 -12 3 3 0 11 -7 18 -10 9 -11 8 -5 -6z"/>
<path d="M1740 284 c-13 -33 -13 -33 10 -27 11 3 20 9 20 13 0 5 3 17 6 27 3
11 -1 8 -11 -7 -16 -24 -16 -24 -12 -2 7 30 -1 28 -13 -4z"/>
<path d="M1810 288 c-8 -21 -9 -21 -10 -3 l-1 20 -9 -20 c-12 -27 -12 -43 0
-25 9 13 10 13 11 0 0 -8 7 -1 14 15 11 23 14 26 15 10 0 -17 2 -18 11 -5 8
11 9 8 5 -15 -5 -22 -4 -26 4 -15 9 13 10 13 10 0 1 -9 6 -5 15 10 17 29 19
44 6 36 -5 -4 -12 0 -14 6 -4 10 -6 10 -6 0 -1 -10 -6 -10 -21 -2 -17 9 -22 7
-30 -12z m57 -20 c-3 -8 -6 -5 -6 6 -1 11 2 17 5 13 3 -3 4 -12 1 -19z"/>
<path d="M1927 293 c-2 -5 -1 -19 4 -33 7 -23 7 -23 8 8 1 31 -3 40 -12 25z"/>
<path d="M1955 290 c-3 -5 -1 -10 4 -10 6 0 11 5 11 10 0 6 -2 10 -4 10 -3 0
-8 -4 -11 -10z"/>
<path d="M615 269 c-4 -6 -5 -12 -2 -15 2 -3 7 2 10 11 7 17 1 20 -8 4z"/>
<path d="M1891 254 c0 -11 3 -14 6 -6 3 7 2 16 -1 19 -3 4 -6 -2 -5 -13z"/>
<path d="M1911 254 c0 -11 3 -14 6 -6 3 7 2 16 -1 19 -3 4 -6 -2 -5 -13z"/>
<path d="M1951 254 c0 -11 3 -14 6 -6 3 7 2 16 -1 19 -3 4 -6 -2 -5 -13z"/>
<path d="M756 235 c-9 -26 -7 -32 5 -12 6 10 9 21 6 23 -2 3 -7 -2 -11 -11z"/>
<path d="M821 236 c-9 -11 -9 -16 1 -22 7 -4 10 -4 6 1 -4 4 -3 14 3 22 6 7 9
13 6 13 -2 0 -10 -6 -16 -14z"/>
<path d="M1678 243 c7 -3 16 -2 19 1 4 3 -2 6 -13 5 -11 0 -14 -3 -6 -6z"/>
<path d="M716 223 c-6 -14 -5 -15 5 -6 7 7 10 15 7 18 -3 3 -9 -2 -12 -12z"/>
<path d="M1023 225 c-3 -9 -3 -18 -1 -21 3 -3 8 4 11 16 6 23 -1 27 -10 5z"/>
<path d="M1260 229 c0 -5 -6 -7 -12 -3 -10 6 -10 5 -1 -8 7 -8 11 -18 8 -21
-3 -4 -2 -5 2 -2 8 7 15 45 8 45 -3 0 -5 -5 -5 -11z"/>
<path d="M596 216 c5 -13 4 -17 -4 -12 -8 5 -10 1 -5 -10 4 -10 2 -15 -3 -12
-5 4 -10 -6 -11 -20 -1 -31 -16 -67 -40 -102 -14 -18 -14 -22 -3 -15 9 5 7 -1
-5 -15 -11 -13 -14 -20 -7 -16 6 4 12 2 12 -3 0 -6 7 -11 15 -11 9 0 15 9 15
24 0 13 7 42 15 65 8 22 12 41 10 41 -3 0 2 18 11 41 13 31 14 43 5 52 -9 9
-11 8 -5 -7z"/>
<path d="M635 219 c-4 -6 -5 -12 -2 -15 2 -3 7 2 10 11 7 17 1 20 -8 4z"/>
<path d="M1686 215 c4 -8 8 -15 10 -15 2 0 4 7 4 15 0 8 -4 15 -10 15 -5 0 -7
-7 -4 -15z"/>
<path d="M1765 210 c3 -5 8 -10 11 -10 2 0 4 5 4 10 0 6 -5 10 -11 10 -5 0 -7
-4 -4 -10z"/>
<path d="M1805 211 c-3 -5 -2 -12 3 -15 5 -3 9 1 9 9 0 17 -3 19 -12 6z"/>
<path d="M1846 207 c3 -10 9 -15 12 -12 3 3 0 11 -7 18 -10 9 -11 8 -5 -6z"/>
<path d="M462 169 c-11 -17 -11 -20 0 -14 7 3 5 0 -4 -8 -10 -8 -15 -17 -11
-20 3 -4 0 -7 -8 -7 -11 0 -11 -2 1 -10 13 -8 12 -10 -2 -10 -10 0 -18 -5 -18
-11 0 -5 6 -7 13 -3 9 6 9 5 0 -7 -6 -8 -12 -18 -12 -24 -3 -27 -14 -45 -23
-39 -6 4 -8 3 -5 -2 3 -6 22 -10 41 -9 l36 0 5 93 c2 50 3 92 2 92 -1 0 -8 -9
-15 -21z"/>
<path d="M743 175 c-3 -9 -3 -18 -1 -21 3 -3 8 4 11 16 6 23 -1 27 -10 5z"/>
<path d="M771 174 c0 -11 3 -14 6 -6 3 7 2 16 -1 19 -3 4 -6 -2 -5 -13z"/>
<path d="M875 179 c-4 -6 -5 -12 -2 -15 2 -3 7 2 10 11 7 17 1 20 -8 4z"/>
<path d="M1011 176 c-9 -11 -9 -16 1 -22 7 -4 10 -4 6 1 -4 4 -3 14 3 22 6 7
9 13 6 13 -2 0 -10 -6 -16 -14z"/>
<path d="M1081 176 c-9 -11 -9 -16 1 -22 7 -4 10 -4 6 1 -4 4 -3 14 3 22 6 7
9 13 6 13 -2 0 -10 -6 -16 -14z"/>
<path d="M1761 176 c-7 -8 -9 -21 -5 -27 5 -9 10 -5 16 11 10 28 5 36 -11 16z"/>
<path d="M705 169 c-4 -6 -5 -12 -2 -15 2 -3 7 2 10 11 7 17 1 20 -8 4z"/>
<path d="M971 164 c0 -11 3 -14 6 -6 3 7 2 16 -1 19 -3 4 -6 -2 -5 -13z"/>
<path d="M1213 165 c0 -8 4 -12 9 -9 4 3 8 9 8 15 0 5 -4 9 -8 9 -5 0 -9 -7
-9 -15z"/>
<path d="M1710 158 c0 -19 2 -20 10 -8 13 19 13 30 0 30 -5 0 -10 -10 -10 -22z"/>
<path d="M1787 160 c-3 -11 -2 -20 3 -20 12 0 21 28 11 35 -5 2 -11 -4 -14
-15z"/>
<path d="M1836 167 c-17 -13 -17 -14 0 -28 16 -12 17 -12 12 2 -4 9 -1 22 5
28 15 15 5 14 -17 -2z"/>
<path d="M1922 164 c-12 -8 -20 -20 -16 -25 3 -5 1 -15 -4 -22 -10 -12 -8 -44
2 -55 3 -3 -1 -13 -10 -23 -16 -18 -12 -39 7 -39 6 0 8 4 5 8 -2 4 0 14 6 22
8 12 9 12 4 -3 -3 -11 0 -20 10 -24 23 -9 28 4 11 30 -9 13 -14 36 -13 51 2
14 -2 26 -8 26 -7 0 -8 3 -1 8 10 6 38 62 32 62 -1 0 -13 -7 -25 -16z"/>
<path d="M935 160 c3 -5 8 -10 11 -10 2 0 4 5 4 10 0 6 -5 10 -11 10 -5 0 -7
-4 -4 -10z"/>
<path d="M1872 150 c0 -14 2 -19 5 -12 2 6 2 18 0 25 -3 6 -5 1 -5 -13z"/>
<path d="M2123 157 c0 -7 -3 -22 -7 -34 -11 -34 0 -28 12 7 6 16 7 32 3 34 -4
3 -8 0 -8 -7z"/>
<path d="M69 113 c-12 -16 -12 -17 2 -6 9 7 20 9 24 5 5 -4 5 -1 1 6 -9 16
-11 15 -27 -5z"/>
<path d="M543 115 c-3 -9 -3 -18 -1 -21 3 -3 8 4 11 16 6 23 -1 27 -10 5z"/>
<path d="M795 119 c-4 -6 -5 -12 -2 -15 2 -3 7 2 10 11 7 17 1 20 -8 4z"/>
<path d="M863 115 c-3 -9 -3 -18 -1 -21 3 -3 8 4 11 16 6 23 -1 27 -10 5z"/>
<path d="M931 116 c-9 -11 -9 -16 1 -22 7 -4 10 -4 6 1 -4 4 -3 14 3 22 6 7 9
13 6 13 -2 0 -10 -6 -16 -14z"/>
<path d="M1002 117 c-6 -7 -7 -19 -3 -26 6 -9 10 -5 13 13 6 30 5 31 -10 13z"/>
<path d="M1031 114 c0 -11 3 -14 6 -6 3 7 2 16 -1 19 -3 4 -6 -2 -5 -13z"/>
<path d="M1101 114 c0 -11 3 -14 6 -6 3 7 2 16 -1 19 -3 4 -6 -2 -5 -13z"/>
<path d="M1697 110 c-3 -11 -1 -20 4 -20 5 0 9 9 9 20 0 11 -2 20 -4 20 -2 0
-6 -9 -9 -20z"/>
<path d="M1752 118 c-15 -15 -15 -35 -1 -44 7 -4 10 -1 7 7 -3 8 -1 22 4 32
10 20 7 22 -10 5z"/>
<path d="M891 104 c0 -11 3 -14 6 -6 3 7 2 16 -1 19 -3 4 -6 -2 -5 -13z"/>
<path d="M1065 110 c-3 -5 -1 -10 4 -10 6 0 11 5 11 10 0 6 -2 10 -4 10 -3 0
-8 -4 -11 -10z"/>
<path d="M1777 101 c-4 -17 -3 -21 5 -13 5 5 8 16 6 23 -3 8 -7 3 -11 -10z"/>
<path d="M1814 106 c1 -6 5 -17 10 -24 5 -8 2 -20 -8 -30 -9 -11 -12 -23 -7
-31 6 -9 11 -5 17 16 13 47 13 80 -1 80 -7 0 -12 -5 -11 -11z"/>
<path d="M1859 108 c0 -2 -2 -11 -4 -21 -3 -15 -1 -16 11 -6 7 6 11 15 8 20
-5 9 -13 12 -15 7z"/>
<path d="M61 76 c-9 -10 -7 -17 6 -27 16 -12 17 -12 6 2 -10 12 -10 18 -1 27
7 7 9 12 6 12 -3 0 -11 -6 -17 -14z"/>
<path d="M921 56 c-9 -11 -9 -16 1 -22 7 -4 10 -4 6 1 -4 4 -3 14 3 22 6 7 9
13 6 13 -2 0 -10 -6 -16 -14z"/>
<path d="M951 54 c0 -11 3 -14 6 -6 3 7 2 16 -1 19 -3 4 -6 -2 -5 -13z"/>
<path d="M991 56 c-7 -8 -8 -17 -3 -20 6 -3 12 3 15 14 6 24 4 25 -12 6z"/>
<path d="M1023 55 c0 -8 4 -12 9 -9 5 3 6 10 3 15 -9 13 -12 11 -12 -6z"/>
<path d="M1063 55 c-3 -9 -3 -18 -1 -21 3 -3 8 4 11 16 6 23 -1 27 -10 5z"/>
<path d="M1090 54 c0 -8 5 -12 10 -9 6 4 8 11 5 16 -9 14 -15 11 -15 -7z"/>
<path d="M1873 55 c0 -8 4 -12 9 -9 5 3 6 10 3 15 -9 13 -12 11 -12 -6z"/>
<path d="M33 46 c3 -7 0 -20 -6 -27 -10 -11 -9 -11 5 0 15 11 15 41 1 41 -3 0
-3 -6 0 -14z"/>
<path d="M1135 49 c-4 -6 -5 -12 -2 -15 2 -3 7 2 10 11 7 17 1 20 -8 4z"/>
<path d="M1732 47 c-6 -7 -7 -19 -3 -26 6 -9 10 -6 14 10 8 28 3 34 -11 16z"/>
<path d="M1765 40 c-4 -12 -5 -24 -2 -27 3 -2 8 5 12 17 4 12 5 24 2 27 -3 2
-8 -5 -12 -17z"/>
<path d="M395 40 c3 -5 8 -10 11 -10 2 0 4 5 4 10 0 6 -5 10 -11 10 -5 0 -7
-4 -4 -10z"/>
<path d="M1840 23 c0 -22 2 -25 10 -13 13 20 13 40 0 40 -5 0 -10 -12 -10 -27z"/>
<path d="M1946 35 c4 -8 10 -12 15 -9 11 6 2 24 -11 24 -5 0 -7 -7 -4 -15z"/>
</g>
</svg>
